<?xml version="1.0" encoding="UTF-8"?>
<!DOCTYPE svg PUBLIC "-//W3C//DTD SVG 1.1//EN" "http://www.w3.org/Graphics/SVG/1.1/DTD/svg11.dtd">
<!-- Creator: CorelDRAW X7 -->
<svg xmlns="http://www.w3.org/2000/svg" xml:space="preserve" width="3.33334in" height="3.33334in" version="1.1" style="shape-rendering:geometricPrecision; text-rendering:geometricPrecision; image-rendering:optimizeQuality; fill-rule:evenodd; clip-rule:evenodd"
viewBox="0 0 133 133"
 xmlns:xlink="http://www.w3.org/1999/xlink">
 <defs>
  <style type="text/css">
   <![CDATA[
    .fil0 {fill:#4D5CF1}
   ]]>
  </style>
 </defs>
 <g id="Layer_x0020_1">
  <metadata id="CorelCorpID_0Corel-Layer"/>
  <path class="fil0" d="M39 67c0,-2 1,-8 2,-11 1,-1 2,-3 3,-4 0,-1 1,-2 1,-2 4,-5 9,-8 15,-10 2,0 4,0 6,-1 3,0 8,1 11,2 2,1 3,2 5,3 4,3 7,6 9,11 4,8 3,19 -2,27 0,0 -1,1 -1,2 -1,0 -1,1 -2,1 -3,4 -8,7 -13,8 -2,0 -4,1 -6,1 -2,0 -8,-1 -11,-2 -2,-1 -5,-3 -6,-4 -2,-1 -4,-4 -5,-5 -3,-4 -5,-9 -5,-14 0,-1 -1,-1 -1,-2zm-11 -53c-2,0 -6,4 -8,7l-6 5c-2,3 -1,4 1,7l6 10c0,1 -2,5 -2,7 -1,2 -2,2 -7,3 -1,0 -9,2 -10,2 -1,1 -2,2 -2,3l0 17c0,3 3,3 5,4l12 3c2,0 1,0 2,2 3,9 4,4 -2,14 -2,3 -4,6 -1,9 2,2 4,4 6,6 8,8 6,7 18,0 3,-2 2,-2 6,0 7,3 4,-2 8,15 1,2 1,5 4,5l17 0c2,0 3,-2 3,-4l4 -13c0,0 0,0 0,0 0,-1 0,-1 0,-1 1,0 2,-1 3,-1 2,-1 3,-2 5,-2 1,-1 3,1 4,2 13,7 9,8 22,-5 5,-6 4,-5 -3,-17 -2,-2 -2,-2 0,-5 1,-2 1,-5 2,-5 2,-1 15,-3 17,-5 1,0 1,-1 1,-2l0 -17c0,-1 -1,-2 -1,-2 -2,-1 -10,-3 -12,-3 -1,-1 -2,-1 -3,-1 -3,-1 -2,-1 -4,-6 -2,-4 -2,-2 3,-10 5,-9 5,-6 -7,-19 -4,-4 -5,-4 -10,-1 -1,1 -3,2 -4,3 -5,3 -4,3 -8,1 -1,0 -1,0 -2,-1 -3,-1 -3,-1 -3,-2 -1,-3 -3,-14 -5,-16 0,0 -1,-1 -2,-1l-17 0c-1,0 -2,1 -2,1 -1,2 -4,12 -4,15 -1,3 0,2 -4,3 -7,3 -3,5 -15,-3 -1,0 -3,-2 -5,-2z"/>
 </g>
</svg>
