<?xml version="1.0" encoding="UTF-8"?>
<!DOCTYPE svg PUBLIC "-//W3C//DTD SVG 1.1//EN" "http://www.w3.org/Graphics/SVG/1.1/DTD/svg11.dtd">
<!-- Creator: CorelDRAW X7 -->
<svg xmlns="http://www.w3.org/2000/svg" xml:space="preserve" width="1.70667in" height="0.32563in" version="1.1" style="shape-rendering:geometricPrecision; text-rendering:geometricPrecision; image-rendering:optimizeQuality; fill-rule:evenodd; clip-rule:evenodd"
viewBox="0 0 594 113"
 xmlns:xlink="http://www.w3.org/1999/xlink">
 <defs>
  <style type="text/css">
   <![CDATA[
    .fil0 {fill:#FEFEFE;fill-opacity:0.301961}
    .fil1 {fill:#FEFEFE;fill-rule:nonzero;fill-opacity:0.301961}
   ]]>
  </style>
 </defs>
 <g id="Layer_x0020_1">
  <metadata id="CorelCorpID_0Corel-Layer"/>
  <path class="fil0" d="M16 0l82 0c8,0 15,7 15,16l0 82c0,8 -7,15 -15,15l-82 0c-9,0 -16,-7 -16,-15l0 -82c0,-9 7,-16 16,-16zm-1 57l16 -29 17 0 -16 29 8 15 25 -44 17 0 17 29 -16 29 -17 0 16 -29 -8 -15 -26 44 -17 0 -16 -29z"/>
  <path class="fil1" d="M153 97c-10,0 -15,-4 -15,-14l0 -50c0,-10 5,-15 15,-15l34 0 0 20 -27 0c-2,0 -4,1 -4,3l0 33c0,2 2,3 4,3l28 0 0 20 -35 0zm78 -40c0,-2 -1,-3 -3,-3l-13 0c-2,0 -3,1 -3,3l0 19c0,2 1,3 3,3l13 0c2,0 3,-1 3,-3l0 -19zm-23 40c-9,0 -14,-4 -14,-14l0 -32c0,-10 5,-15 14,-15l27 0c9,0 14,5 14,15l0 32c0,10 -5,14 -14,14l-27 0zm64 0c-10,0 -15,-4 -15,-14l0 -32c0,-10 5,-15 15,-15l23 0 0 -18 18 0 0 79 -41 0zm23 -43l-16 0c-3,0 -4,1 -4,3l0 19c0,2 1,3 4,3l16 0 0 -25zm64 1c0,-1 -1,-2 -2,-2l-15 0c-2,0 -3,1 -3,2l0 4c0,2 1,2 3,2l15 0c1,0 2,0 2,-2l0 -4zm-23 42c-10,0 -15,-5 -15,-14l0 -32c0,-10 5,-15 15,-15l27 0c9,0 14,5 14,14l0 9c0,10 -5,14 -14,14l-20 0c-2,0 -3,0 -4,0l0 4c0,2 2,3 4,3l31 0 0 17 -38 0zm49 0l0 -17 35 0c1,0 1,0 1,-2l0 -3c0,-1 0,-2 -1,-2l-23 0c-5,0 -8,-1 -10,-3 -2,-2 -2,-6 -2,-10l0 -10c0,-9 4,-14 14,-14l39 0 0 17 -34 0c-1,0 -2,1 -2,2l0 4c0,1 1,1 2,1l23 0c8,0 13,5 13,13l0 10c0,9 -5,14 -13,14l-42 0zm67 -66c-2,0 -4,-1 -4,-4l0 -7c0,-3 2,-4 4,-4l10 0c3,0 4,1 4,4l0 7c0,3 -1,4 -4,4l-10 0zm-4 66l0 -61 18 0 0 61 -18 0zm42 0c-10,0 -15,-4 -15,-14l0 -32c0,-10 5,-15 14,-15l23 0 0 -18 18 0 0 79 -40 0zm22 -43l-16 0c-2,0 -3,1 -3,3l0 19c0,2 1,3 3,3l16 0 0 -25zm64 1c0,-1 0,-2 -2,-2l-15 0c-1,0 -2,1 -2,2l0 4c0,2 1,2 2,2l15 0c2,0 2,0 2,-2l0 -4zm-22 42c-10,0 -15,-5 -15,-14l0 -32c0,-10 5,-15 14,-15l28 0c9,0 13,5 13,14l0 9c0,10 -4,14 -13,14l-21 0c-1,0 -2,0 -3,0l0 4c0,2 1,3 3,3l32 0 0 17 -38 0z"/>
 </g>
</svg>
