<?xml version="1.0" encoding="UTF-8"?>
<!DOCTYPE svg PUBLIC "-//W3C//DTD SVG 1.1//EN" "http://www.w3.org/Graphics/SVG/1.1/DTD/svg11.dtd">
<!-- Creator: CorelDRAW X7 -->
<svg xmlns="http://www.w3.org/2000/svg" xml:space="preserve" width="6.66657in" height="7.67794in" version="1.1" style="shape-rendering:geometricPrecision; text-rendering:geometricPrecision; image-rendering:optimizeQuality; fill-rule:evenodd; clip-rule:evenodd"
viewBox="0 0 6667 7678"
 xmlns:xlink="http://www.w3.org/1999/xlink">
 <defs>
  <style type="text/css">
   <![CDATA[
    .fil1 {fill:#FEFEFE}
    .fil0 {fill:#00DAB4}
   ]]>
  </style>
 </defs>
 <g id="Layer_x0020_1">
  <metadata id="CorelCorpID_0Corel-Layer"/>
  <path class="fil0" d="M3338 7678c-134,3 -269,-71 -269,-224 0,0 0,-970 0,-973 0,-311 -494,-314 -494,0 0,0 0,439 0,440 0,330 -529,332 -529,0 0,0 0,-1264 0,-1267 0,-301 -494,-314 -494,0 0,0 0,729 0,731 0,329 -529,333 -529,0 0,0 0,-1124 0,-1127 0,-312 -494,-314 -494,0 0,0 0,346 0,347 0,326 -529,337 -529,0 0,0 0,-3504 0,-3514 0,-316 529,-331 529,0 0,0 0,1703 0,1709 0,312 494,314 494,0 0,0 0,-2482 0,-2489 0,-325 529,-333 529,0 0,0 0,685 0,687 0,313 494,314 494,0 0,0 0,-1221 0,-1223 0,-320 529,-331 529,0 0,0 0,487 0,489 0,312 494,316 494,0 0,0 0,-1021 0,-1022 0,-320 529,-326 529,0 0,0 0,1022 0,1022 0,308 494,317 494,0 0,0 0,-488 0,-489 0,-329 529,-333 529,0 0,0 0,1310 0,1316 0,313 494,313 494,0 0,0 0,-779 0,-780 0,-320 529,-330 529,0 0,0 0,1172 0,1176 0,313 494,314 494,0 0,0 0,-395 0,-396 0,-329 529,-334 529,0 0,0 0,3507 0,3514 0,323 -529,326 -529,0 0,0 0,-1605 0,-1611 0,-310 -494,-314 -494,0 0,0 0,2384 0,2391 0,330 -529,332 -529,0 0,0 0,-636 0,-638 0,-311 -494,-315 -494,0 0,0 0,1171 0,1174 0,321 -529,335 -529,0 0,0 0,-439 0,-440 0,-312 -494,-315 -494,0 0,0 0,966 0,973 0,146 -129,221 -260,224z"/>
  <path class="fil0" d="M3068 1290c-27,289 -493,277 -493,-26 0,-2 0,-489 0,-489 0,-331 -529,-320 -529,0 0,2 0,1223 0,1223 0,314 -494,313 -494,0 0,-2 0,-687 0,-687 0,-333 -529,-325 -529,0 0,7 0,2489 0,2489 0,314 -494,312 -494,0 0,-6 0,-1709 0,-1709 0,-331 -529,-316 -529,0 0,10 0,3514 0,3514 0,337 529,326 529,0 0,-1 0,-347 0,-347 0,-314 494,-312 494,0 0,3 0,1127 0,1127 0,333 529,329 529,0 0,-2 0,-731 0,-731 0,-314 494,-301 494,0 0,3 0,1267 0,1267 0,332 529,330 529,0 0,-1 0,-440 0,-440 0,-314 494,-311 494,0l0 973c0,153 135,227 269,224 131,-3 260,-78 260,-224 0,-7 0,-973 0,-973 0,-315 494,-312 494,0 0,1 0,440 0,440 0,334 529,321 529,0 0,-3 0,-1174 0,-1174 0,-315 494,-311 494,0 0,2 0,638 0,638 0,332 529,330 529,0 0,-7 0,-2391 0,-2391 0,-314 494,-310 494,0 0,6 0,1611 0,1611 0,326 529,323 529,0l0 -2033c-1523,-124 -2855,-1017 -3599,-2282z"/>
  <path class="fil0" d="M6138 4570c0,462 0,1035 0,1035 0,326 529,323 529,0l0 -1181c-173,59 -349,108 -529,146z"/>
  <path class="fil0" d="M6138 5494c0,69 0,111 0,111 0,326 529,323 529,0l0 -410c-169,111 -346,211 -529,299z"/>
  <path class="fil0" d="M5115 5844c0,178 0,541 0,541 0,332 529,330 529,0l0 -688c-172,60 -349,108 -529,147z"/>
  <path class="fil1" d="M2956 2479l1715 991c292,168 292,588 0,756l-1715 991c-291,168 -655,-43 -655,-379l0 -1981c0,-336 364,-546 655,-378z"/>
 </g>
</svg>
